<?xml version="1.0" encoding="UTF-8" standalone="no" ?>
<!DOCTYPE svg PUBLIC "-//W3C//DTD SVG 1.1//EN" "http://www.w3.org/Graphics/SVG/1.1/DTD/svg11.dtd">
<svg xmlns="http://www.w3.org/2000/svg" xmlns:xlink="http://www.w3.org/1999/xlink" version="1.1" width="1080" height="1080" viewBox="0 0 1080 1080" xml:space="preserve">
<desc>Created with Fabric.js 5.2.4</desc>
<defs>
</defs>
<g transform="matrix(1 0 0 1 540 540)" id="39ec9cb6-8e1e-41a4-b688-f8352aefc95c"  >
<rect style="stroke: none; stroke-width: 1; stroke-dasharray: none; stroke-linecap: butt; stroke-dashoffset: 0; stroke-linejoin: miter; stroke-miterlimit: 4; fill: rgb(255,255,255); fill-rule: nonzero; opacity: 1; visibility: hidden;" vector-effect="non-scaling-stroke"  x="-540" y="-540" rx="0" ry="0" width="1080" height="1080" />
</g>
<g transform="matrix(1 0 0 1 540 540)" id="c5879d8f-c207-49ac-8afa-7d1361cdcd01"  >
</g>
<g transform="matrix(NaN NaN NaN NaN 0 0)"  >
<g style=""   >
</g>
</g>
<g transform="matrix(1.96 0 0 1.96 540 518.17)" id="9b173737-73d0-449e-bc99-1e99a826b84e"  >
<path style="stroke: rgb(66,153,225); stroke-width: 0; stroke-dasharray: none; stroke-linecap: butt; stroke-dashoffset: 0; stroke-linejoin: miter; stroke-miterlimit: 4; fill: rgb(66,153,225); fill-rule: nonzero; opacity: 1;" vector-effect="non-scaling-stroke"  transform=" translate(-256, -248.42)" d="M 183.09 450.706 C 186.474 450.706 189.24 453.464 189.24 456.87 C 189.24 460.254 186.47400000000002 463.012 183.09 463.012 C 179.69930378746778 463.00814353435544 176.95140847148522 460.26069553976566 176.947 456.87 C 176.92000000000002 453.472 179.678 450.706 183.09 450.706 z M 442.06000000000006 193.344 C 436.8450000000001 190.894 423.98400000000004 187.558 419.95400000000006 183.52599999999998 C 416.4219996248225 179.9961710717965 413.44370674453637 175.9528536036879 411.12000000000006 171.533 C 408.79559726753916 175.9526756610262 405.8170056833787 179.9959409546127 402.2850000000001 183.52599999999998 C 393.3780000000001 192.43499999999997 372.94200000000006 197.96699999999998 359.4140000000001 197.96699999999998 C 345.8860000000001 197.96699999999998 325.4500000000001 192.43499999999997 316.5410000000001 183.52599999999998 C 313.0080741236595 179.99673246021374 310.0293740280432 175.95331986862044 307.70600000000013 171.533 C 305.3822932554638 175.9528536036879 302.4040003751777 179.9961710717965 298.8720000000001 183.52599999999998 C 289.96300000000014 192.43499999999997 269.52700000000016 197.96699999999998 255.99900000000014 197.96699999999998 C 242.47200000000015 197.96699999999998 222.03600000000014 192.43499999999997 213.12800000000013 183.52599999999998 C 209.59630814951544 179.99567105506006 206.61775353094367 175.95245594011595 204.29300000000015 171.533 C 201.96962597195707 175.95331986862044 198.99092587634073 179.99673246021374 195.4580000000001 183.52599999999998 C 186.55000000000013 192.43499999999997 166.11400000000012 197.96699999999998 152.58500000000012 197.96699999999998 C 139.06100000000012 197.96699999999998 118.62500000000011 192.43499999999997 109.71500000000012 183.52599999999998 C 106.18330814951541 179.99567105506006 103.20475353094366 175.95245594011595 100.88000000000014 171.533 C 98.55593545056276 175.95288746119667 95.57730821192472 179.9962011536682 92.0450000000001 183.52599999999998 C 86.1820000000001 189.392 70.70700000000011 193.79 62.5240000000001 196.11599999999999 C 46.0750000000001 198.12699999999998 26.678000000000104 195.76299999999998 14.441000000000102 183.52599999999998 C 5.531 174.62 0 162.321 0 148.795 L 0 129.718 L 0.006 129.453 L 0.006 129.429 C -0.000030663901431512985 128.45914352433945 0.24674181159711306 127.50445112611185 0.7219999999999993 126.659 L 35.357 15.68 C 38.213 6.535 45.165 0.672 58.627 0.01 L 450.662 0 C 462.753 1.305 470.62399999999997 6.379 473.88 15.579 L 511.169 126.507 C 511.667 127.331 511.928 128.232 511.96999999999997 129.132 L 511.972 129.14600000000002 C 511.99199999999996 129.334 512 129.52700000000002 512 129.71800000000002 L 512 148.79500000000002 C 512 162.32100000000003 506.467 174.62 497.558 183.526 C 483.044 198.049 460.974 197.67600000000002 442.06 193.34400000000002 z M 479.36300000000006 218.99099999999999 L 479.36300000000006 471.59799999999996 C 479.36300000000006 478.51199999999994 476.4990000000001 484.83299999999997 471.9270000000001 489.405 C 467.35300000000007 493.979 461.0330000000001 496.839 454.11800000000005 496.839 L 57.896 496.839 C 50.972 496.839 44.64 493.995 40.063 489.417 L 39.365 488.64799999999997 C 35.208 484.138 32.645 478.14099999999996 32.645 471.59799999999996 L 32.645 219.167 C 39.594 220.626 46.663000000000004 221.221 53.503 221.15200000000002 L 53.503 471.598 C 53.503 472.652 53.878 473.619 54.494 474.366 L 54.811 474.669 C 55.618 475.476 56.718 475.97999999999996 57.896 475.97999999999996 L 454.118 475.97999999999996 C 455.276 475.97999999999996 456.366 475.46999999999997 457.179 474.657 C 457.99199999999996 473.844 458.50399999999996 472.75399999999996 458.50399999999996 471.59799999999996 L 458.50399999999996 220.251 C 465.22499999999997 220.588 472.02899999999994 220.291 478.703 219.11100000000002 L 479.363 218.991 z M 186.24300000000005 266.95 C 219.68700000000007 225.624 258.23300000000006 203.15099999999998 287.177 239.909 C 321.92 241.74099999999999 336.636 294.07 309.26500000000004 317.43 L 309.119 318.689 C 310.0637037821524 318.4253627708812 311.03143302878226 318.2525778950123 312.009 318.173 C 314.106 318.01 316.123 318.353 317.84700000000004 319.273 C 319.73400000000004 320.28200000000004 321.18300000000005 321.918 321.93000000000006 324.24600000000004 C 322.64000000000004 326.444 322.6720000000001 329.24 321.74500000000006 332.66200000000003 L 317.39000000000004 345.02700000000004 C 316.67100000000005 347.07300000000004 316.00900000000007 348.51200000000006 314.55000000000007 349.67400000000004 C 313.05300000000005 350.86600000000004 311.25200000000007 351.31100000000004 308.47600000000006 351.165 L 307.54100000000005 351.07500000000005 C 307.16800000000006 364.73300000000006 300.43600000000004 371.059 291.63500000000005 379.32400000000007 L 291.58700000000005 379.3690000000001 C 291.5638360342087 380.12312399010756 291.57518122538977 380.87791288574306 291.62100000000004 381.6310000000001 C 294.11600000000004 385.0370000000001 296.84700000000004 387.72800000000007 299.94000000000005 389.6710000000001 C 306.79800000000006 393.2800000000001 315.56300000000005 394.0340000000001 324.91400000000004 394.9860000000001 L 313.08900000000006 437.2490000000001 L 204.022 437.2490000000001 L 189.017 394.6790000000001 C 199.54999999999998 392.7500000000001 210.322 390.06000000000006 220.638 382.8210000000001 C 221.202325708576 382.34691311245797 221.75321004171985 381.8570528912786 222.29 381.3520000000001 L 222.487 376.2180000000001 C 215.731 370.1000000000001 210.46099999999998 363.69700000000006 209.26399999999998 351.0850000000001 L 208.73899999999998 351.0890000000001 C 206.92399999999998 351.0630000000001 205.176 350.6510000000001 203.53599999999997 349.7160000000001 C 200.90899999999996 348.2210000000001 199.07499999999996 345.68200000000013 197.83999999999997 342.8220000000001 C 196.38499999999996 339.4540000000001 195.72899999999998 335.51800000000014 195.57399999999998 332.5500000000001 L 195.57 332.4570000000001 C 195.524 331.3650000000001 195.52599999999998 329.27800000000013 195.57999999999998 327.29500000000013 C 195.63 325.5750000000001 195.71999999999997 323.90500000000014 195.85299999999998 322.9520000000001 C 195.897 322.6390000000001 195.97899999999998 322.34300000000013 196.094 322.0660000000001 C 197.884 317.0870000000001 200.588 315.3550000000001 204.128 315.3370000000001 L 202.159 314.0260000000001 C 200.855 297.74900000000014 203.92 272.29900000000015 186.243 266.9500000000001 z M 285.13800000000003 385.32399999999996 C 277.055 392.06399999999996 268.36100000000005 395.347 259.53600000000006 395.35099999999994 C 249.39800000000005 395.35499999999996 239.25600000000006 391.02399999999994 229.83100000000007 382.64199999999994 L 228.85100000000008 381.7849999999999 C 232.6610000000001 415.3699999999999 279.4140000000001 418.0729999999999 285.1380000000001 385.3239999999999 z M 331.317 450.70599999999996 C 334.701 450.70599999999996 337.45300000000003 453.46399999999994 337.45300000000003 456.86999999999995 C 337.45300000000003 460.25399999999996 334.701 463.01199999999994 331.317 463.01199999999994 C 327.925 463.01199999999994 325.159 460.25399999999996 325.159 456.86999999999995 C 325.159 453.4719999999999 327.925 450.70599999999996 331.317 450.70599999999996 z M 171.612 397.914 C 152.21699999999998 402.32599999999996 129.954 411.861 120.357 453.91999999999996 L 116.674 468.03399999999993 L 163.24 468.03399999999993 L 163.24 446.21399999999994 C 163.24 441.2869999999999 167.29600000000002 437.24899999999997 172.22400000000002 437.24899999999997 L 181.806 437.24899999999997 C 181.39200000000002 421.652 173.595 405.28799999999995 171.61200000000002 397.914 z M 395.409 468.034 L 391.168 451.507 C 382.809 413.857 360.6 402.237 342.992 397.786 C 341.21200000000005 405.152 335.73900000000003 422.577 335.449 437.21500000000003 L 342.20300000000003 437.21500000000003 C 347.13100000000003 437.21500000000003 351.17300000000006 441.259 351.17300000000006 446.18600000000004 L 351.17300000000006 468.03400000000005 L 395.40900000000005 468.03400000000005 z M 210.24 324.009 C 206.543 322.721 203.917 322.115 202.91400000000002 324.314 C 202.834 325.093 202.776 326.269 202.74300000000002 327.49 C 202.693 329.29 202.693 331.183 202.735 332.15000000000003 L 202.73700000000002 332.184 C 202.854 334.46200000000005 203.35000000000002 337.461 204.44000000000003 339.98400000000004 C 205.116 341.54900000000004 205.991 342.86400000000003 207.07500000000002 343.482 C 207.604 343.783 208.19500000000002 343.91900000000004 208.823 343.92600000000004 C 209.614 343.93600000000004 210.499 343.773 211.436 343.49800000000005 C 212.5168694499767 343.12539735060597 213.71064985246616 343.29082932219995 214.6494642169045 343.9433161736787 C 215.58827858134285 344.5958030251574 216.15946281184716 345.6570419056252 216.187 346.80000000000007 C 216.54000000000002 361.6940000000001 223.167 367.40100000000007 231.22 374.33700000000005 L 234.606 377.27700000000004 C 242.696 384.47100000000006 251.20999999999998 388.19000000000005 259.536 388.18800000000005 C 267.632 388.18600000000004 275.735 384.64700000000005 283.29200000000003 377.34800000000007 L 286.72 374.09800000000007 C 295.17400000000004 366.1580000000001 301.39500000000004 360.31700000000006 300.20500000000004 346.0930000000001 C 300.14955644954284 345.2948186170816 300.3567619361672 344.5004138531081 300.795 343.8310000000001 C 301.8817484384262 342.1798424993039 304.10061292503934 341.7211220275858 305.75300000000004 342.8060000000001 C 306.2895051402492 343.1641900947519 306.86525372086953 343.45978129494216 307.46900000000005 343.68700000000007 C 307.934 343.87500000000006 308.39400000000006 343.97800000000007 308.84200000000004 344.00200000000007 L 310.08600000000007 344.05800000000005 C 310.13000000000005 344.02200000000005 310.3230000000001 343.48800000000006 310.62200000000007 342.63900000000007 L 314.8310000000001 330.70900000000006 C 315.35300000000007 328.74000000000007 315.40100000000007 327.3430000000001 315.11000000000007 326.43600000000004 C 314.9820000000001 326.01900000000006 314.75500000000005 325.74500000000006 314.4750000000001 325.595 C 314.02400000000006 325.35400000000004 313.3440000000001 325.274 312.54300000000006 325.336 C 310.73800000000006 325.476 308.62500000000006 326.351 306.7440000000001 327.771 C 305.56891633264246 328.65560424780693 303.97326640620264 328.73443810475436 302.7167095326798 327.96997023484016 C 301.46015265915696 327.20550236492596 300.79661717188264 325.75221845533486 301.0420000000001 324.302 C 304.15100000000007 306.13 302.7300000000001 294.29600000000005 298.8670000000001 286.238 C 295.5250000000001 279.269 290.20200000000006 275.012 284.41600000000005 271.831 C 271.37100000000004 281.79 262.1650000000001 282.92900000000003 252.98700000000005 284.06100000000004 C 245.43600000000006 284.992 237.89600000000004 285.925 227.92800000000005 292.82300000000004 C 223.19400000000005 296.093 220.05700000000004 300.047 218.45700000000005 304.641 C 216.84300000000005 309.27700000000004 216.72700000000006 314.68 218.05100000000004 320.802 C 218.25676906739358 321.527740297242 218.22736264157018 322.30000905160347 217.96700000000004 323.00800000000004 C 217.28281343583663 324.86778209643467 215.22237169085685 325.82285007853017 213.36100000000005 325.14300000000003 C 212.33500000000004 324.766 211.27300000000005 324.338 210.24000000000004 324.009 z" stroke-linecap="round" />
</g>
<g transform="matrix(NaN NaN NaN NaN 0 0)"  >
<g style=""   >
</g>
</g>
<g transform="matrix(NaN NaN NaN NaN 0 0)"  >
<g style=""   >
</g>
</g>
<g transform="matrix(NaN NaN NaN NaN 0 0)"  >
<g style=""   >
</g>
</g>
<g transform="matrix(NaN NaN NaN NaN 0 0)"  >
<g style=""   >
</g>
</g>
</svg>